<svg xmlns="http://www.w3.org/2000/svg" viewBox="0 0 250 250"><defs><style>.cls-1{fill:#55c500;}</style></defs><g id="favicon"><path class="cls-1" d="M185.64,189.47c-13.48,14.38-31.8,19.11-54,21.35-44.91,4.54-83.81-15.51-88.52-65.62a98.06,98.06,0,0,1,12.3-58.14L49.87,65.17a5.4,5.4,0,0,1,6.31-6.52l19.23,4.66a75.59,75.59,0,0,1,40.51-17.06,74.22,74.22,0,0,1,37.2,5.86l18.07-10.93a5.34,5.34,0,0,1,8,4.34l1,25.78h0c13.9,14.67,23.36,34.7,25.5,57.46,1.21,12.85-.13,22.68-3.53,32.06-1.6,4.39-2.08,8.1.81,11.77s7.2,10.45,12.12,9.29c7.41-1.73,15.34-1.27,20.24,1.79a125.21,125.21,0,1,0-20.3,28,29.34,29.34,0,0,1-11.94-4.73C195.72,201.94,189.11,197.25,185.64,189.47Z"/><path class="cls-1" d="M174.1,97.82l11.67-1.43-.16-2.11-12,1.47q-.76-2.27-1.73-4.43l13.19-4.21-.41-2.65-14,4.86c-9.41-19.73-29.76-31.71-52.8-29.38A54.15,54.15,0,0,0,71,100L57.31,98l-.15,2.7,13.51,1.46c-.36,1.56-.66,2.48-.89,4.09L58,107.14l.11,2.11,11.49-.92a39.35,39.35,0,0,0-.35,4.76l-10.5,4.29.52,2.6,10-4.68c0,1.4.08,2.14.21,3.55,2.78,29.55,27.46,35.4,57,32.41s52.62-13.66,49.84-43.21c-.13-1.42-.34-2.15-.58-3.53l10.83,2.35.26-2.39-11.36-2.15A41.85,41.85,0,0,0,174.1,97.82Z"/></g></svg>